<?xml version="1.0" standalone="no"?>
<!DOCTYPE svg PUBLIC "-//W3C//DTD SVG 20010904//EN"
 "http://www.w3.org/TR/2001/REC-SVG-20010904/DTD/svg10.dtd">
<svg version="1.0" xmlns="http://www.w3.org/2000/svg"
 width="475.000000pt" height="170.000000pt" viewBox="0 0 475.000000 170.000000"
 preserveAspectRatio="xMidYMid meet">

<g transform="translate(0.000000,170.000000) scale(0.100000,-0.100000)"
fill="#000000" stroke="none">
<path d="M1050 1501 c0 -75 1 -81 21 -81 38 0 59 -19 59 -54 0 -43 -33 -92
-128 -189 -92 -94 -320 -297 -334 -297 -15 0 -6 459 10 487 17 30 46 44 106
52 37 4 52 11 54 24 3 16 -15 17 -267 17 -187 0 -272 -3 -277 -11 -9 -16 15
-29 56 -29 44 0 97 -32 110 -66 15 -39 13 -976 -2 -1009 -15 -33 -51 -52 -116
-61 -34 -4 -52 -11 -52 -20 0 -12 49 -14 275 -14 228 0 275 2 275 14 0 9 -17
16 -47 21 -59 9 -99 28 -115 58 -15 26 -25 497 -11 497 5 0 113 -105 241 -233
236 -237 249 -255 223 -296 -5 -8 -29 -17 -53 -20 l-43 -6 -3 -73 -3 -74 228
4 c254 5 291 12 375 73 34 25 55 52 81 103 53 107 60 177 55 602 -5 403 -7
422 -71 516 -70 104 -159 133 -444 141 l-203 6 0 -82z m431 -103 c26 -14 47
-37 61 -67 23 -45 23 -51 23 -466 0 -379 -2 -424 -18 -466 -10 -26 -26 -54
-37 -64 -19 -17 -21 -17 -62 10 -24 16 -168 153 -322 305 l-279 276 59 54 c33
30 134 129 225 222 128 129 179 173 220 193 66 30 81 31 130 3z"/>
<path d="M3720 1059 c-24 -33 -72 -87 -107 -119 -35 -33 -63 -64 -63 -70 0 -5
14 -10 30 -10 l30 0 0 -182 c1 -251 15 -299 96 -326 58 -20 112 -7 156 38 48
48 54 85 7 46 -35 -30 -51 -32 -73 -10 -14 13 -16 48 -16 225 l0 209 65 0 65
0 0 30 0 30 -65 0 -65 0 0 100 c0 55 -3 100 -8 100 -4 0 -27 -27 -52 -61z"/>
<path d="M2670 921 c-121 -37 -189 -128 -143 -189 26 -34 67 -45 108 -27 45
18 51 45 23 101 l-23 46 24 19 c14 11 39 19 61 19 57 0 80 -34 80 -116 l0 -64
-82 -41 c-157 -79 -211 -133 -210 -210 2 -126 136 -152 256 -52 l30 25 18 -36
c26 -50 79 -66 143 -42 25 10 54 31 66 47 24 35 20 46 -10 27 -40 -25 -46 -3
-51 216 -6 229 -6 231 -85 267 -42 19 -156 25 -205 10z m130 -352 c0 -104 -8
-118 -72 -119 -86 0 -77 114 14 180 22 17 45 30 50 30 4 0 8 -41 8 -91z"/>
<path d="M3378 915 c-15 -8 -38 -34 -52 -58 l-26 -42 0 53 0 52 -115 0 c-63 0
-115 -3 -115 -7 0 -5 14 -16 30 -25 l30 -17 1 -193 c1 -106 0 -209 -1 -228 -2
-37 -24 -70 -47 -70 -7 0 -13 -4 -13 -10 0 -6 57 -10 150 -10 93 0 150 4 150
10 0 6 -7 10 -15 10 -8 0 -24 9 -35 20 -18 18 -20 33 -20 180 0 118 4 170 14
195 17 40 29 43 71 15 41 -27 70 -25 94 6 30 39 24 102 -13 126 -18 12 -59 8
-88 -7z"/>
<path d="M4112 909 c-55 -28 -107 -89 -133 -158 -17 -46 -20 -72 -17 -141 9
-170 93 -264 238 -264 96 0 156 36 209 124 38 64 22 68 -37 10 -36 -36 -45
-40 -90 -40 -40 0 -57 6 -82 26 -39 33 -69 91 -77 149 l-6 45 158 0 158 0 -6
54 c-9 89 -70 179 -140 205 -47 18 -128 13 -175 -10z m133 -31 c19 -17 28 -38
35 -83 17 -101 21 -95 -75 -95 l-85 0 0 48 c1 78 42 147 92 151 4 1 19 -9 33
-21z"/>
<path d="M1870 914 c0 -4 11 -17 25 -30 l25 -23 0 -195 c0 -207 5 -234 48
-279 54 -57 139 -56 220 3 l42 30 0 -30 0 -30 105 0 c58 0 105 3 105 8 0 4 -9
13 -20 20 -19 12 -20 23 -20 272 l0 260 -120 0 c-66 0 -120 -4 -120 -8 0 -5
15 -15 33 -23 l32 -14 3 -193 2 -193 -29 -30 c-19 -19 -40 -29 -59 -29 -54 0
-57 12 -60 262 l-4 228 -104 0 c-57 0 -104 -3 -104 -6z"/>
</g>
</svg>
