<?xml version="1.0" standalone="no"?>
<!DOCTYPE svg PUBLIC "-//W3C//DTD SVG 20010904//EN"
 "http://www.w3.org/TR/2001/REC-SVG-20010904/DTD/svg10.dtd">
<svg version="1.0" xmlns="http://www.w3.org/2000/svg"
 width="532.000000pt" height="469.000000pt" viewBox="0 0 532.000000 469.000000"
 preserveAspectRatio="xMidYMid meet">

<g transform="translate(0.000000,469.000000) scale(0.100000,-0.100000)"
fill="#000000" stroke="none">
<path d="M1845 4321 c-16 -4 -57 -22 -90 -39 -41 -21 -80 -33 -125 -37 -35 -3
-66 -8 -68 -10 -3 -2 15 -26 38 -52 63 -71 104 -168 196 -471 l28 -93 90 -44
c122 -58 285 -167 375 -251 l74 -69 -7 45 c-15 99 -108 356 -182 502 -19 38
-34 72 -31 74 13 13 168 -281 229 -435 16 -40 36 -88 45 -105 l16 -31 27 85
c28 89 79 198 124 264 14 21 26 43 26 49 0 18 -60 128 -109 200 -140 205 -286
331 -466 402 -47 19 -148 27 -190 16z"/>
<path d="M3333 4225 c-110 -34 -252 -145 -488 -380 -106 -106 -130 -134 -183
-212 -75 -111 -119 -206 -146 -318 -16 -70 -30 -175 -22 -175 3 0 17 24 31 54
36 75 89 142 121 150 17 5 35 1 50 -9 36 -23 32 -89 -12 -216 -19 -56 -33
-109 -31 -118 3 -9 19 -63 36 -121 33 -113 61 -248 61 -292 0 -48 16 -31 33
35 54 206 57 225 42 261 -30 71 -12 156 33 156 18 0 21 11 37 141 21 171 20
195 -10 231 -85 100 65 220 203 163 52 -23 78 -50 92 -100 15 -52 0 -93 -42
-113 -17 -8 -29 -24 -34 -45 -3 -17 -17 -65 -30 -106 -13 -41 -22 -76 -20 -79
2 -2 32 52 66 120 72 142 236 436 257 458 8 8 -29 -73 -81 -180 -130 -268
-256 -564 -244 -575 2 -2 33 20 71 47 l67 51 0 61 c0 67 4 77 38 95 27 14 56
2 89 -36 l21 -26 94 45 c83 41 295 118 323 118 27 0 45 30 65 105 46 179 65
501 35 603 -20 65 -43 78 -159 91 -94 11 -108 16 -181 71 -47 35 -103 61 -129
59 -6 0 -30 -6 -53 -14z"/>
<path d="M1501 4148 c-17 -55 -23 -98 -14 -98 4 1 19 7 33 15 14 8 35 14 48
15 12 0 22 6 22 13 0 15 -58 87 -70 87 -5 0 -13 -15 -19 -32z"/>
<path d="M935 3701 c-228 -66 -330 -224 -211 -328 38 -34 124 -63 135 -45 11
19 105 -51 211 -157 110 -110 120 -122 237 -274 269 -350 468 -543 666 -643
135 -69 164 -77 298 -83 116 -6 129 -8 168 -34 24 -16 45 -27 47 -24 8 7 -17
107 -42 169 -73 179 -336 495 -629 757 -112 100 -42 53 110 -74 167 -138 369
-335 472 -460 42 -49 84 -98 95 -107 29 -25 61 -22 99 9 l32 27 -7 126 c-6
120 -26 253 -40 267 -3 4 -12 1 -18 -5 -20 -20 -73 -14 -94 9 -16 17 -19 37
-19 108 0 86 0 86 -44 146 -67 92 -216 233 -316 300 -352 236 -904 388 -1150
316z"/>
<path d="M2946 3519 c-32 -25 -35 -67 -5 -93 20 -17 21 -24 15 -105 -3 -47
-14 -134 -22 -193 -15 -102 -15 -108 2 -132 11 -14 23 -24 28 -23 6 2 21 50
34 108 72 314 75 324 101 324 35 0 50 29 31 62 -38 67 -131 94 -184 52z"/>
<path d="M4210 3320 c-312 -44 -559 -110 -745 -199 l-108 -51 9 -53 c5 -28 9
-101 9 -162 -1 -122 -15 -166 -61 -187 -34 -16 -74 8 -89 53 l-11 32 -30 -39
c-52 -68 -84 -123 -84 -145 0 -12 -15 -35 -34 -53 -19 -17 -44 -55 -56 -85
-19 -50 -20 -55 -4 -72 25 -28 45 -24 110 22 139 96 286 191 379 244 154 88
505 262 505 250 0 -2 -51 -31 -112 -66 -62 -34 -126 -70 -143 -79 -313 -175
-597 -406 -664 -542 l-32 -63 83 -8 c98 -11 358 6 468 29 128 26 280 82 407
149 198 104 319 198 480 372 183 198 266 279 332 322 70 45 84 49 74 25 -5
-13 -1 -15 15 -10 12 3 32 9 45 12 61 17 74 71 30 126 -77 94 -170 154 -279
182 -83 22 -329 20 -494 -4z"/>
<path d="M2625 3264 c-70 -93 -147 -315 -131 -378 9 -35 32 -33 51 5 40 77
124 313 127 360 4 43 -20 49 -47 13z"/>
<path d="M3235 3141 c-6 -21 21 -341 34 -387 11 -41 36 -42 50 -3 24 70 2 308
-35 381 -17 32 -40 37 -49 9z"/>
<path d="M2855 2980 c-10 -16 3 -61 50 -180 75 -189 123 -264 147 -228 29 46
-108 374 -171 408 -14 7 -22 7 -26 0z"/>
<path d="M3138 2913 c-72 -62 -98 -97 -91 -122 3 -12 11 -21 18 -19 13 3 135
146 135 159 0 22 -23 16 -62 -18z"/>
<path d="M2608 2923 c-3 -10 5 -60 18 -110 12 -51 28 -152 35 -225 10 -114 10
-153 -5 -276 -9 -79 -23 -172 -32 -207 -19 -74 -14 -95 19 -95 23 0 25 6 36
78 47 312 37 567 -31 785 -21 68 -32 81 -40 50z"/>
<path d="M3169 2823 c-73 -80 -100 -128 -83 -146 8 -8 124 141 124 159 0 21
-14 17 -41 -13z"/>
<path d="M2865 2645 c-15 -33 -31 -69 -36 -80 -25 -55 -62 -189 -98 -358 -23
-103 -41 -192 -41 -197 0 -6 15 -10 34 -10 38 0 38 0 51 105 20 163 70 378
112 487 21 54 24 73 16 90 -10 21 -13 19 -38 -37z"/>
<path d="M1095 2595 c-105 -17 -171 -35 -280 -77 -329 -124 -625 -420 -642
-642 -11 -131 31 -174 158 -163 47 4 110 23 220 65 300 115 358 127 644 126
171 0 249 -5 423 -28 118 -15 229 -25 247 -22 29 6 39 16 66 67 18 33 56 85
86 114 l53 55 -23 14 c-35 23 -179 74 -285 100 -192 49 -263 58 -487 65 l-220
6 91 13 c111 15 403 16 512 1 118 -16 125 -11 61 37 -61 47 -173 154 -240 229
l-44 50 -125 2 c-70 1 -164 -4 -215 -12z"/>
<path d="M2950 2513 c-78 -167 -160 -417 -160 -488 0 -20 3 -22 27 -16 25 7
29 14 39 77 21 123 103 369 136 412 7 8 6 17 -2 27 -18 21 -25 19 -40 -12z"/>
<path d="M4145 2281 c-60 -43 -210 -116 -302 -148 -46 -15 -83 -30 -83 -33 0
-3 48 -14 106 -24 166 -28 413 -91 401 -102 -1 -2 -33 3 -70 11 -185 39 -306
48 -552 41 -132 -3 -257 -9 -278 -12 l-38 -6 51 -54 c51 -54 105 -152 116
-212 10 -54 52 -66 299 -82 395 -25 662 -92 836 -211 69 -46 106 -89 132 -151
11 -27 23 -48 26 -48 12 0 119 115 143 155 43 69 68 151 68 219 0 257 -278
532 -663 655 -118 38 -141 38 -192 2z"/>
<path d="M2230 2076 c-80 -30 -93 -38 -140 -82 -97 -91 -134 -192 -128 -348 6
-126 28 -192 148 -446 96 -203 138 -311 170 -440 62 -246 107 -343 180 -382
77 -43 228 2 349 102 59 49 115 119 233 290 36 52 102 147 147 210 99 140 194
328 221 434 36 144 22 315 -35 411 -35 60 -107 127 -172 160 -68 35 -158 41
-208 14 -94 -50 -136 -70 -162 -74 -15 -2 -44 -7 -64 -10 l-36 -5 5 -158 c2
-86 -1 -220 -7 -297 -12 -138 -36 -303 -46 -314 -3 -3 -2 33 2 79 13 135 9
466 -5 560 -20 123 -30 142 -88 162 -27 10 -80 41 -119 69 -38 28 -84 58 -102
65 -40 17 -97 17 -143 0z"/>
<path d="M4634 1299 c-16 -17 -49 -42 -73 -57 -38 -22 -41 -27 -25 -33 27 -11
156 -10 173 0 17 11 9 59 -15 96 -21 32 -24 31 -60 -6z"/>
</g>
</svg>
