<?xml version="1.0" standalone="no"?>
<!DOCTYPE svg PUBLIC "-//W3C//DTD SVG 20010904//EN"
 "http://www.w3.org/TR/2001/REC-SVG-20010904/DTD/svg10.dtd">
<svg version="1.0" xmlns="http://www.w3.org/2000/svg"
 width="515.000000pt" height="484.000000pt" viewBox="0 0 515.000000 484.000000"
 preserveAspectRatio="xMidYMid meet">

<g transform="translate(0.000000,484.000000) scale(0.100000,-0.100000)"
fill="#000000" stroke="none">
<path d="M2950 4339 c-210 -20 -438 -93 -595 -191 -239 -150 -502 -442 -670
-743 -279 -501 -509 -1031 -581 -1342 -67 -292 -78 -603 -24 -746 15 -39 38
-72 82 -116 42 -42 66 -75 77 -108 11 -31 29 -57 54 -77 36 -29 45 -31 110
-30 60 2 99 11 232 59 160 57 475 161 635 209 264 79 532 132 925 181 415 52
674 125 865 243 190 118 337 318 493 672 101 230 157 460 159 661 2 135 -19
175 -171 331 -111 113 -118 118 -157 118 -104 0 -500 -141 -799 -284 -178 -85
-441 -232 -600 -334 -279 -179 -465 -321 -789 -602 -38 -33 -75 -60 -82 -60
-24 0 -25 20 -2 42 333 321 620 566 843 721 108 75 402 267 409 267 3 0 38 20
78 44 125 76 571 306 593 306 13 0 241 113 256 126 20 18 16 40 -40 206 -69
207 -91 230 -283 297 -215 74 -498 133 -721 151 -142 11 -161 11 -297 -1z"/>
</g>
</svg>
